<svg width="512" height="512" viewBox="0 0 512 512" xmlns="http://www.w3.org/2000/svg">
  <!-- Background -->
  <rect width="512" height="512" fill="#111111"/>

  <!-- Yellow border -->
  <rect x="18" y="18" width="476" height="476" fill="none" stroke="#F5C518" stroke-width="20"/>
  <rect x="36" y="36" width="440" height="440" fill="none" stroke="#F5C518" stroke-width="3" opacity="0.25"/>

  <!-- Leaf left -->
  <g transform="translate(72,256) rotate(-20)">
    <path d="M0,0 C-12,-38 -34,-46 -19,-80 C-8,-56 17,-46 0,0Z" fill="#3d7a36" opacity="0.95"/>
    <path d="M0,0 C12,-38 34,-46 19,-80 C8,-56 -17,-46 0,0Z" fill="#2d6028" opacity="0.95"/>
    <line x1="0" y1="0" x2="0" y2="-76" stroke="#1e4a1a" stroke-width="2" opacity="0.9"/>
  </g>
  <g transform="translate(108,278) rotate(8)">
    <path d="M0,0 C-9,-28 -26,-34 -15,-58 C-6,-42 13,-34 0,0Z" fill="#3d7a36" opacity="0.7"/>
    <path d="M0,0 C9,-28 26,-34 15,-58 C6,-42 -13,-34 0,0Z" fill="#2d6028" opacity="0.7"/>
  </g>

  <!-- Leaf right -->
  <g transform="translate(440,256) rotate(20) scale(-1,1)">
    <path d="M0,0 C-12,-38 -34,-46 -19,-80 C-8,-56 17,-46 0,0Z" fill="#3d7a36" opacity="0.95"/>
    <path d="M0,0 C12,-38 34,-46 19,-80 C8,-56 -17,-46 0,0Z" fill="#2d6028" opacity="0.95"/>
    <line x1="0" y1="0" x2="0" y2="-76" stroke="#1e4a1a" stroke-width="2" opacity="0.9"/>
  </g>
  <g transform="translate(404,278) rotate(-8) scale(-1,1)">
    <path d="M0,0 C-9,-28 -26,-34 -15,-58 C-6,-42 13,-34 0,0Z" fill="#3d7a36" opacity="0.7"/>
    <path d="M0,0 C9,-28 26,-34 15,-58 C6,-42 -13,-34 0,0Z" fill="#2d6028" opacity="0.7"/>
  </g>

  <!-- SB centered -->
  <text x="256" y="318"
    font-family="Arial Black, Arial, sans-serif"
    font-weight="900"
    font-size="220"
    letter-spacing="10"
    text-anchor="middle"
    fill="#F5C518">SB</text>

  <!-- Fine line under SB -->
  <line x1="148" y1="345" x2="364" y2="345" stroke="#888888" stroke-width="3" opacity="0.4"/>
</svg>
